<svg xmlns="http://www.w3.org/2000/svg" viewBox="0 0 1200 500" width="1200" height="500">
  <defs>
    <linearGradient id="bg" x1="0" y1="0" x2="1200" y2="500" gradientUnits="userSpaceOnUse">
      <stop offset="0%" stop-color="#0d1117"/>
      <stop offset="100%" stop-color="#161b22"/>
    </linearGradient>
  </defs>

  <!-- Background -->
  <rect width="1200" height="500" rx="12" fill="url(#bg)"/>

  <!-- Title -->
  <text x="600" y="58" text-anchor="middle" font-family="system-ui,-apple-system,Segoe UI,sans-serif" font-size="44" font-weight="800" fill="#ffffff" letter-spacing="0.5">Mastering GitHub</text>
  <text x="600" y="90" text-anchor="middle" font-family="system-ui,-apple-system,Segoe UI,sans-serif" font-size="18" font-weight="600" fill="#b0bac5" letter-spacing="3">FROM FIRST COMMIT TO PRODUCTION · 9 COURSES</text>

  <!-- ═══ ROW 1: Courses 1–5 (y=195) ═══ -->

  <line x1="130" y1="195" x2="1070" y2="195" stroke="#21262d" stroke-width="2.5"/>

  <!-- Course 1 -->
  <g transform="translate(130,195)">
    <circle r="44" fill="#4a9eff" fill-opacity="0.15" stroke="#4a9eff" stroke-width="3"/>
    <line x1="-12" y1="-14" x2="0" y2="0" stroke="#4a9eff" stroke-width="4" stroke-linecap="round"/>
    <line x1="12" y1="-14" x2="0" y2="0" stroke="#4a9eff" stroke-width="4" stroke-linecap="round"/>
    <line x1="0" y1="0" x2="0" y2="16" stroke="#4a9eff" stroke-width="4" stroke-linecap="round"/>
    <circle cx="-12" cy="-14" r="4" fill="#4a9eff" fill-opacity="0.5"/>
    <circle cx="12" cy="-14" r="4" fill="#4a9eff" fill-opacity="0.5"/>
    <text y="68" text-anchor="middle" font-family="system-ui,-apple-system,sans-serif" font-size="15" font-weight="700" fill="#e6edf3">Pull Requests</text>
    <text y="-54" text-anchor="middle" font-family="system-ui,-apple-system,sans-serif" font-size="16" font-weight="800" fill="#4a9eff">1</text>
  </g>

  <!-- Course 2 -->
  <g transform="translate(365,195)">
    <circle r="44" fill="#4a9eff" fill-opacity="0.15" stroke="#4a9eff" stroke-width="3"/>
    <path d="M0-18 L14-10 L14 4 Q14 16 0 20 Q-14 16 -14 4 L-14-10 Z" fill="#4a9eff" fill-opacity="0.20" stroke="#4a9eff" stroke-width="3" stroke-linejoin="round"/>
    <line x1="0" y1="-7" x2="0" y2="5" stroke="#4a9eff" stroke-width="3" stroke-linecap="round"/>
    <circle cx="0" cy="9" r="2.5" fill="#4a9eff"/>
    <text y="68" text-anchor="middle" font-family="system-ui,-apple-system,sans-serif" font-size="15" font-weight="700" fill="#e6edf3">Security</text>
    <text y="-54" text-anchor="middle" font-family="system-ui,-apple-system,sans-serif" font-size="16" font-weight="800" fill="#4a9eff">2</text>
  </g>

  <!-- Course 3 -->
  <g transform="translate(600,195)">
    <circle r="44" fill="#9f8fef" fill-opacity="0.15" stroke="#9f8fef" stroke-width="3"/>
    <path d="M-14 6 Q-14-8 -4-8 Q0-18 12-14 Q22-10 18 0 Q24 8 16 8 L-12 8 Q-18 8 -14 6 Z" fill="#9f8fef" fill-opacity="0.20" stroke="#9f8fef" stroke-width="3"/>
    <text y="68" text-anchor="middle" font-family="system-ui,-apple-system,sans-serif" font-size="15" font-weight="700" fill="#e6edf3">Actions</text>
    <text y="-54" text-anchor="middle" font-family="system-ui,-apple-system,sans-serif" font-size="16" font-weight="800" fill="#9f8fef">3</text>
  </g>

  <!-- Course 4 -->
  <g transform="translate(835,195)">
    <circle r="44" fill="#9f8fef" fill-opacity="0.15" stroke="#9f8fef" stroke-width="3"/>
    <rect x="-14" y="-16" width="28" height="32" rx="3" fill="#9f8fef" fill-opacity="0.20" stroke="#9f8fef" stroke-width="3"/>
    <line x1="-7" y1="-8" x2="-7" y2="-2" stroke="#9f8fef" stroke-width="2.5"/>
    <line x1="0" y1="-8" x2="0" y2="-2" stroke="#9f8fef" stroke-width="2.5"/>
    <line x1="7" y1="-8" x2="7" y2="-2" stroke="#9f8fef" stroke-width="2.5"/>
    <line x1="-7" y1="4" x2="-7" y2="10" stroke="#9f8fef" stroke-width="2.5"/>
    <line x1="0" y1="4" x2="0" y2="10" stroke="#9f8fef" stroke-width="2.5"/>
    <line x1="7" y1="4" x2="7" y2="10" stroke="#9f8fef" stroke-width="2.5"/>
    <text y="68" text-anchor="middle" font-family="system-ui,-apple-system,sans-serif" font-size="15" font-weight="700" fill="#e6edf3">Enterprise</text>
    <text y="-54" text-anchor="middle" font-family="system-ui,-apple-system,sans-serif" font-size="16" font-weight="800" fill="#9f8fef">4</text>
  </g>

  <!-- Course 5 -->
  <g transform="translate(1070,195)">
    <circle r="44" fill="#00b8d9" fill-opacity="0.15" stroke="#00b8d9" stroke-width="3"/>
    <circle cx="-8" cy="-8" r="6" fill="#00b8d9" fill-opacity="0.30" stroke="#00b8d9" stroke-width="2.5"/>
    <circle cx="8" cy="-8" r="6" fill="#00b8d9" fill-opacity="0.30" stroke="#00b8d9" stroke-width="2.5"/>
    <circle cx="0" cy="8" r="6" fill="#00b8d9" fill-opacity="0.30" stroke="#00b8d9" stroke-width="2.5"/>
    <line x1="-4" y1="-5" x2="4" y2="-5" stroke="#00b8d9" stroke-width="2.5"/>
    <line x1="-6" y1="-3" x2="-3" y2="4" stroke="#00b8d9" stroke-width="2.5"/>
    <line x1="6" y1="-3" x2="3" y2="4" stroke="#00b8d9" stroke-width="2.5"/>
    <text y="68" text-anchor="middle" font-family="system-ui,-apple-system,sans-serif" font-size="15" font-weight="700" fill="#e6edf3">AI Models</text>
    <text y="-54" text-anchor="middle" font-family="system-ui,-apple-system,sans-serif" font-size="16" font-weight="800" fill="#00b8d9">5</text>
  </g>

  <!-- Row connector -->
  <path d="M1070,239 L1070,280 Q1070,290 1060,290 L140,290 Q130,290 130,300 L130,360" fill="none" stroke="#21262d" stroke-width="2.5"/>

  <!-- ═══ ROW 2: Courses 6–9 (y=360) ═══ -->

  <line x1="185" y1="360" x2="1015" y2="360" stroke="#21262d" stroke-width="2.5"/>

  <!-- Course 6 -->
  <g transform="translate(185,360)">
    <circle r="44" fill="#00b8d9" fill-opacity="0.15" stroke="#00b8d9" stroke-width="3"/>
    <rect x="-16" y="-14" width="32" height="20" rx="5" fill="#00b8d9" fill-opacity="0.20" stroke="#00b8d9" stroke-width="3"/>
    <polygon points="-6,6 -11,16 2,6" fill="#00b8d9" fill-opacity="0.20" stroke="#00b8d9" stroke-width="2.5"/>
    <text x="0" y="0" text-anchor="middle" font-family="monospace" font-size="14" font-weight="700" fill="#00b8d9">&gt;_</text>
    <text y="68" text-anchor="middle" font-family="system-ui,-apple-system,sans-serif" font-size="15" font-weight="700" fill="#e6edf3">Prompting</text>
    <text y="-54" text-anchor="middle" font-family="system-ui,-apple-system,sans-serif" font-size="16" font-weight="800" fill="#00b8d9">6</text>
  </g>

  <!-- Course 7 -->
  <g transform="translate(462,360)">
    <circle r="44" fill="#36b37e" fill-opacity="0.15" stroke="#36b37e" stroke-width="3"/>
    <circle r="16" fill="none" stroke="#36b37e" stroke-width="3"/>
    <polyline points="-7,1 -1,8 9,-7" fill="none" stroke="#36b37e" stroke-width="4" stroke-linecap="round" stroke-linejoin="round"/>
    <text y="68" text-anchor="middle" font-family="system-ui,-apple-system,sans-serif" font-size="15" font-weight="700" fill="#e6edf3">Testing</text>
    <text y="-54" text-anchor="middle" font-family="system-ui,-apple-system,sans-serif" font-size="16" font-weight="800" fill="#36b37e">7</text>
  </g>

  <!-- Course 8 -->
  <g transform="translate(738,360)">
    <circle r="44" fill="#ffab00" fill-opacity="0.15" stroke="#ffab00" stroke-width="3"/>
    <line x1="0" y1="-16" x2="0" y2="12" stroke="#ffab00" stroke-width="3" stroke-linecap="round"/>
    <line x1="-16" y1="-8" x2="16" y2="-8" stroke="#ffab00" stroke-width="3" stroke-linecap="round"/>
    <path d="M-16-8 L-20 6 L-12 6 Z" fill="#ffab00" fill-opacity="0.30" stroke="#ffab00" stroke-width="2.5"/>
    <path d="M16-8 L12 6 L20 6 Z" fill="#ffab00" fill-opacity="0.30" stroke="#ffab00" stroke-width="2.5"/>
    <line x1="-6" y1="12" x2="6" y2="12" stroke="#ffab00" stroke-width="3" stroke-linecap="round"/>
    <text y="68" text-anchor="middle" font-family="system-ui,-apple-system,sans-serif" font-size="15" font-weight="700" fill="#e6edf3">Governance</text>
    <text y="-54" text-anchor="middle" font-family="system-ui,-apple-system,sans-serif" font-size="16" font-weight="800" fill="#ffab00">8</text>
  </g>

  <!-- Course 9 -->
  <g transform="translate(1015,360)">
    <circle r="44" fill="#ffab00" fill-opacity="0.15" stroke="#ffab00" stroke-width="3"/>
    <path d="M0-18 Q10-14 10 0 L4 10 L-4 10 L-10 0 Q-10-14 0-18 Z" fill="#ffab00" fill-opacity="0.30" stroke="#ffab00" stroke-width="3"/>
    <circle cx="0" cy="-6" r="3.5" fill="#ffab00" fill-opacity="0.6"/>
    <line x1="-5" y1="10" x2="-7" y2="18" stroke="#ff5630" stroke-width="3" stroke-linecap="round"/>
    <line x1="0" y1="10" x2="0" y2="19" stroke="#ff5630" stroke-width="3" stroke-linecap="round"/>
    <line x1="5" y1="10" x2="7" y2="18" stroke="#ff5630" stroke-width="3" stroke-linecap="round"/>
    <text y="68" text-anchor="middle" font-family="system-ui,-apple-system,sans-serif" font-size="15" font-weight="700" fill="#e6edf3">Capstone</text>
    <text y="-54" text-anchor="middle" font-family="system-ui,-apple-system,sans-serif" font-size="16" font-weight="800" fill="#ffab00">9</text>
  </g>

  <!-- Footer -->
  <text x="600" y="478" text-anchor="middle" font-family="system-ui,-apple-system,sans-serif" font-size="14" font-weight="500" fill="#6e7681">Pragmatic AI Labs · Coursera</text>
</svg>
